# xmcd
#
# Track frame offsets: 
#        150
#        12673
#        31832
#        45590
#        61053
#        74675
#        88168
#        100658
#        113393
#        130137
#        146489
#        160285
#        175543
#        187873
#
# Disc length: 2752 seconds
#
# Revision: 0
# Processed by: cddbd v1.5.2PL0 Copyright (c) Steve Scherf et al.
# Submitted via: ExactAudioCopyFreeDBPlugin 1.0
#
DISCID=af0abe0e
DTITLE=Thom Shepherd - 12 Pack
DYEAR=2015
DGENRE=Country
TTITLE0=I Wasn't Going To Drink Today
TTITLE1=Beer Pong Anthem
TTITLE2=Always Saturday Night
TTITLE3=Little Ms. Everything
TTITLE4=How 'Bout a Shot
TTITLE5=Pour Me Some Por Favor
TTITLE6=Beer Season
TTITLE7=Drunk I Am
TTITLE8=Pier Pressure
TTITLE9=The Texas Way
TTITLE10=Friday Night Drunk
TTITLE11=Drinkin' And Dialin'
TTITLE12=Dogcatcher
TTITLE13=Take Yer Drunk Ass Home
EXTD=
EXTT0=
EXTT1=
EXTT2=
EXTT3=
EXTT4=
EXTT5=
EXTT6=
EXTT7=
EXTT8=
EXTT9=
EXTT10=
EXTT11=
EXTT12=
EXTT13=
PLAYORDER=
